<mxfile host="65bd71144e">
    <diagram id="t29NXZIWWkfYdR0zi__g" name="第 1 页">
        <mxGraphModel dx="866" dy="667" grid="1" gridSize="10" guides="1" tooltips="1" connect="1" arrows="1" fold="1" page="1" pageScale="1" pageWidth="827" pageHeight="1169" math="0" shadow="0">
            <root>
                <mxCell id="0"/>
                <mxCell id="1" parent="0"/>
                <mxCell id="2" value="frontend-knowledge-system" style="rounded=0;whiteSpace=wrap;html=1;fillColor=#0050ef;strokeColor=#001DBC;fontColor=#ffffff;fontSize=16;fontStyle=1" vertex="1" parent="1">
                    <mxGeometry x="270" y="559" width="236" height="50" as="geometry"/>
                </mxCell>
                <mxCell id="3" value="JavaScript" style="rounded=1;whiteSpace=wrap;html=1;fontSize=18;fillColor=#a20025;strokeColor=#6F0000;fontColor=#ffffff;fontStyle=1" vertex="1" parent="1">
                    <mxGeometry x="580" y="590" width="120" height="60" as="geometry"/>
                </mxCell>
                <mxCell id="5" value="" style="shape=flexArrow;endArrow=classic;html=1;fontSize=18;entryX=0;entryY=0.5;entryDx=0;entryDy=0;exitX=1;exitY=0.5;exitDx=0;exitDy=0;" edge="1" parent="1" source="2" target="3">
                    <mxGeometry width="50" height="50" relative="1" as="geometry">
                        <mxPoint x="490" y="610" as="sourcePoint"/>
                        <mxPoint x="510" y="640" as="targetPoint"/>
                    </mxGeometry>
                </mxCell>
            </root>
        </mxGraphModel>
    </diagram>
</mxfile>